<?xml version="1.0" encoding="UTF-8"?>
<svg id="targetBlankIcon" xmlns="http://www.w3.org/2000/svg" version="1.1" viewBox="0 0 64 64">
  <!-- Generator: Adobe Illustrator 29.4.0, SVG Export Plug-In . SVG Version: 2.1.0 Build 152)  -->
  <defs>
    <style>
      .st0 {
        fill: none;
        stroke: #000;
        stroke-miterlimit: 10;
      }
    </style>
  </defs>
  <path class="st0" d="M34.43,16h-13.94c-2.48,0-4.5,2.01-4.5,4.5v23.01c0,2.48,2.01,4.5,4.5,4.5h23.01c2.48,0,4.5-2.01,4.5-4.5v-13.9"/>
  <path class="st0" d="M52.79,8.87l-13.48,3.61c-1.42.38-1.9,2.16-.86,3.2l2.61,2.61-21.33,21.33c-.79.79-.79,2.06,0,2.85l1.8,1.8c.79.79,2.06.79,2.85,0l21.33-21.33,2.61,2.61c1.04,1.04,2.82.57,3.2-.86l3.61-13.48c.38-1.42-.92-2.73-2.34-2.34Z"/>
  <path class="st0" d="M46.14,21.52l2.15,2.15c.73.73,1.98.4,2.25-.6l2.96-11.04c.27-1-.65-1.92-1.65-1.65l-11.04,2.96c-1,.27-1.34,1.52-.6,2.25l1.74,1.74"/>
</svg>