<?xml version="1.0" encoding="UTF-8"?>
<svg id="Layer_1" xmlns="http://www.w3.org/2000/svg" version="1.1" viewBox="0 0 64 64">
  <!-- Generator: Adobe Illustrator 29.4.0, SVG Export Plug-In . SVG Version: 2.1.0 Build 152)  -->
  <defs>
    <style>
      .st0 {
        fill: none;
        stroke: #000;
        stroke-miterlimit: 10;
        stroke-width: 4px;
      }
    </style>
  </defs>
  <path class="st0" d="M37.79,23.35h-9.95c-3.12,0-5.65,2.53-5.65,5.65v11.13c0,3.12,2.53,5.65,5.65,5.65h27.95c3.12,0,5.65-2.53,5.65-5.65v-11.13c0-3.12-2.53-5.65-5.65-5.65h-10.38"/>
  <path class="st0" d="M26.72,40.65h9.45c3.12,0,5.65-2.53,5.65-5.65v-11.13c0-3.12-2.53-5.65-5.65-5.65H8.21c-3.12,0-5.65,2.53-5.65,5.65v11.13c0,3.12,2.53,5.65,5.65,5.65h9.59"/>
</svg>